<?xml version="1.0" standalone="no"?>
<!DOCTYPE svg PUBLIC "-//W3C//DTD SVG 20010904//EN"
 "http://www.w3.org/TR/2001/REC-SVG-20010904/DTD/svg10.dtd">
<svg version="1.0" xmlns="http://www.w3.org/2000/svg"
 width="700.000000pt" height="700.000000pt" viewBox="0 0 700.000000 700.000000"
 preserveAspectRatio="xMidYMid meet">
<metadata>
Created by potrace 1.11, written by Peter Selinger 2001-2013
</metadata>
<g transform="translate(0.000000,700.000000) scale(0.100000,-0.100000)"
fill="#000000" stroke="none">
<path d="M3195 6939 c-881 -81 -1654 -458 -2246 -1096 -489 -526 -791 -1167
-895 -1898 -21 -151 -30 -574 -15 -749 82 -978 581 -1875 1381 -2481 515 -390
1072 -612 1725 -687 165 -19 560 -16 735 5 768 94 1443 417 1988 951 510 499
839 1114 981 1832 66 334 82 772 41 1099 -146 1155 -860 2164 -1895 2675 -377
186 -727 289 -1160 340 -123 15 -518 21 -640 9z m674 -153 c1046 -138 1932
-726 2463 -1636 232 -397 379 -860 428 -1345 13 -119 16 -515 5 -563 -5 -25
-18 -35 -83 -65 -110 -50 -364 -133 -463 -151 -151 -28 -381 -49 -534 -50
-122 0 -165 4 -230 21 -183 48 -255 90 -305 175 -47 81 -31 133 60 200 67 50
66 92 -4 184 -103 137 -282 224 -461 224 -186 0 -337 -40 -700 -185 -143 -57
-303 -118 -355 -135 -184 -59 -1164 -295 -1301 -313 -74 -9 -111 -8 -261 11
-96 12 -219 33 -274 47 -209 55 -476 210 -529 308 -24 45 -11 63 51 73 54 8
59 15 39 53 -39 77 -267 281 -355 319 -135 58 -304 68 -461 28 -52 -13 -162
-49 -245 -80 -83 -31 -155 -56 -159 -56 -11 0 1 112 26 245 164 888 685 1673
1439 2170 463 305 967 480 1540 535 131 12 531 4 669 -14z m-1226 -4203 c-4
-87 -8 -178 -8 -203 l0 -45 137 -15 136 -16 5 36 c3 19 13 107 23 195 9 88 20
163 23 167 6 7 281 -39 290 -47 5 -6 -132 -953 -139 -966 -7 -11 -227 16 -241
30 -4 3 -2 84 5 180 8 117 8 175 1 177 -15 5 -239 32 -243 29 -2 -2 -12 -83
-23 -181 -11 -98 -21 -179 -23 -181 -6 -6 -237 -26 -242 -21 -3 3 4 230 15
503 15 388 22 500 33 506 7 5 68 9 136 9 l123 0 -8 -157z m-679 51 c13 -5 16
-24 16 -109 l0 -102 -97 -5 c-146 -7 -234 -54 -284 -150 -60 -117 -11 -315 96
-390 62 -43 139 -55 227 -33 40 9 94 28 121 41 l47 25 21 -48 c29 -67 59 -143
59 -149 0 -11 -148 -72 -214 -89 -323 -79 -565 55 -640 356 -18 73 -21 192 -5
258 38 165 189 313 372 366 104 30 241 44 281 29z m1725 -69 c152 -29 560
-122 568 -129 2 -2 -8 -42 -38 -157 l-9 -37 -120 26 c-66 14 -123 22 -127 19
-3 -4 -41 -169 -83 -367 -43 -198 -80 -363 -83 -366 -5 -5 -246 41 -253 49 -1
1 33 168 77 371 53 247 75 372 68 376 -6 4 -60 17 -120 30 -60 12 -109 27
-109 33 0 21 34 187 38 187 3 0 89 -16 191 -35z m2265 -173 c3 -5 8 -54 12
-110 l7 -102 -45 0 c-149 0 -274 -59 -266 -127 5 -41 40 -53 188 -64 147 -10
215 -31 277 -84 83 -71 113 -214 65 -318 -44 -99 -178 -196 -354 -256 -95 -33
-220 -61 -274 -61 l-37 0 7 46 c3 26 6 80 6 120 l0 74 49 0 c64 0 245 46 302
77 54 29 73 61 59 98 -14 37 -60 52 -185 60 -232 15 -345 93 -361 252 -17 159
93 295 295 363 94 31 244 50 255 32z m-4828 -477 c79 -253 142 -465 140 -470
-3 -9 -236 -88 -242 -82 -11 11 -292 933 -286 938 9 10 225 78 236 75 4 -1 73
-209 152 -461z m3435 435 c67 -16 123 -31 125 -32 1 -2 -17 -132 -42 -288 -48
-315 -53 -387 -26 -440 33 -67 115 -97 186 -70 39 14 81 81 96 152 8 35 32
182 55 328 l40 265 130 -4 c72 -2 133 -5 136 -7 7 -4 -83 -559 -105 -643 -40
-155 -128 -258 -255 -297 -66 -20 -203 -18 -282 4 -109 31 -196 92 -236 167
-56 106 -56 224 2 596 25 159 45 291 45 294 0 7 -2 8 131 -25z"/>
<path d="M2263 6350 c-34 -14 -52 -61 -63 -165 -17 -167 -50 -214 -244 -349
-54 -38 -97 -76 -105 -93 -26 -57 -35 -236 -23 -486 13 -269 13 -270 -55 -347
-96 -109 -171 -228 -199 -319 -35 -109 -27 -639 12 -788 17 -65 33 -87 86
-114 47 -24 69 -24 120 2 33 17 49 19 92 13 28 -5 67 -7 87 -5 66 5 99 -59 51
-97 -11 -8 -48 -12 -120 -10 l-103 3 -30 -33 c-34 -38 -40 -103 -11 -139 21
-27 108 -73 137 -73 30 0 91 22 195 70 47 21 124 48 171 59 153 36 260 90 331
169 46 51 59 77 92 181 38 122 43 206 17 315 -32 135 -67 185 -143 206 -33 10
-77 -2 -128 -37 -42 -28 -61 -29 -85 -3 -10 11 -43 29 -74 41 -69 26 -114 16
-159 -36 -82 -93 -32 -242 85 -252 78 -7 121 13 168 81 40 56 71 84 82 72 27
-26 31 -318 7 -390 -22 -63 -108 -150 -164 -167 -37 -11 -43 -11 -62 9 l-21
21 21 52 c50 120 13 188 -98 179 -35 -2 -67 -25 -85 -60 -19 -36 -32 -37 -88
-8 -30 16 -61 22 -110 23 -37 1 -71 5 -77 11 -14 14 -33 356 -26 464 13 184
51 281 163 418 149 182 152 196 134 497 -6 110 -11 229 -11 265 0 110 10 129
113 221 80 71 119 111 209 217 17 21 25 23 56 16 64 -13 92 -6 222 56 193 91
230 82 230 -55 1 -87 14 -146 36 -162 25 -18 89 -16 127 4 18 9 55 32 84 51
70 46 84 37 81 -59 -3 -87 15 -109 91 -117 44 -4 57 -1 92 24 79 54 86 87 34
153 -23 28 -35 55 -35 75 -1 48 -35 113 -72 136 -79 49 -126 37 -226 -60 -40
-38 -76 -70 -81 -70 -11 0 -21 76 -21 154 0 76 -22 121 -76 159 -88 61 -165
45 -284 -58 -35 -30 -71 -55 -81 -55 -19 0 -43 27 -92 104 -18 27 -43 58 -57
68 -31 22 -87 31 -117 18z"/>
<path d="M4774 6106 c-107 -50 -164 -123 -239 -301 -100 -240 -228 -400 -335
-419 -58 -10 -147 20 -292 99 -177 97 -209 110 -338 140 -130 30 -217 31 -325
6 l-79 -19 -28 23 c-34 28 -91 41 -126 29 -36 -13 -66 -75 -58 -119 12 -65 83
-125 146 -125 17 0 79 15 138 34 142 45 227 59 326 51 137 -11 194 -24 336
-80 189 -74 246 -88 366 -88 88 0 109 4 157 26 77 35 132 93 212 227 125 209
186 293 198 273 9 -14 37 -291 39 -373 1 -102 -12 -126 -102 -175 -98 -54
-123 -103 -79 -159 12 -15 54 -49 94 -76 90 -61 119 -95 135 -159 21 -89 -19
-283 -66 -322 -33 -27 -88 67 -159 271 -84 242 -116 281 -227 283 -40 1 -54
-4 -75 -26 -25 -25 -27 -32 -30 -137 -2 -93 -6 -121 -26 -164 -50 -108 -207
-229 -547 -421 -303 -171 -312 -177 -345 -228 -26 -40 -37 -49 -85 -62 -81
-24 -112 -37 -143 -59 -45 -33 -69 -79 -65 -127 4 -52 35 -78 99 -85 85 -10
91 -12 87 -42 -2 -22 -9 -28 -33 -30 -70 -9 -194 38 -240 88 -18 20 -18 22 -2
49 27 45 22 85 -13 115 -111 93 -294 -16 -250 -148 21 -64 110 -149 203 -194
101 -50 177 -71 288 -79 114 -8 152 1 200 44 83 75 113 175 80 263 -29 77 -28
120 7 152 15 14 108 81 207 148 235 160 431 307 515 387 69 64 100 115 134
220 10 29 26 63 36 75 19 23 19 23 38 3 11 -11 50 -96 87 -190 81 -206 125
-291 170 -335 31 -30 41 -34 91 -34 54 -1 58 1 94 42 78 88 143 321 144 522 1
112 -1 130 -23 173 -13 27 -47 68 -77 94 -30 26 -54 50 -54 54 0 3 17 28 39
55 58 73 74 131 66 234 -9 104 -27 204 -57 304 -20 69 -21 82 -10 146 14 82 7
104 -43 139 -50 34 -100 37 -161 7z"/>
<path d="M2570 5868 c-65 -45 -89 -100 -90 -208 -1 -90 -17 -138 -63 -190 -23
-26 -50 -70 -61 -99 -13 -37 -23 -51 -35 -49 -14 3 -17 24 -21 144 -6 159 -13
180 -64 170 -62 -13 -66 -24 -66 -184 0 -163 13 -262 40 -294 15 -19 28 -23
83 -23 76 0 93 12 158 107 21 31 43 59 47 62 5 3 37 10 72 15 50 8 71 17 98
43 45 44 54 63 61 128 l6 55 53 11 c30 7 65 22 78 35 31 29 32 72 2 93 -38 27
-87 20 -146 -21 -38 -26 -56 -33 -64 -25 -18 18 -21 104 -5 159 14 45 14 53 1
72 -19 27 -43 27 -84 -1z"/>
</g>
</svg>
