<?xml version="1.0" encoding="utf-8"?>
<!-- Generator: Adobe Illustrator 22.0.1, SVG Export Plug-In . SVG Version: 6.00 Build 0)  -->
<svg version="1.1" id="Capa_1" xmlns="http://www.w3.org/2000/svg" x="0px" y="0px" viewBox="0 0 512 512" style="enable-background:new 0 0 512 512;" xml:space="preserve">
<style type="text/css">
	.st0-megaphone{fill:#AE4E32;}
	.st1-megaphone{fill:#FFFFFF;}
	.st2-megaphone{fill:#E0E0E0;}
	.st3-megaphone{fill:#FF6838;}
	.st4-megaphone{fill:#FFDC00;}
	.st5-megaphone{fill:#FFC000;}
</style>
<polygon class="st0-megaphone" points="263.1,453.8 179.5,482 120.7,313.8 204.3,285.6 "/>
<path class="st1-megaphone" d="M436.1,366.1c0,0-196.7-54.2-329.4-7.8L71.2,257C203.9,210.5,323.9,45.5,323.9,45.5L436.1,366.1z"/>
<path class="st2-megaphone" d="M92.7,318.4l13.9,39.9c132.7-46.4,329.4,7.8,329.4,7.8l-56.7-162L92.7,318.4z"/>
<path class="st3-megaphone" d="M323.9,45.5c0,0-15,20.6-40.3,49.4l90.1,257.7c37.7,6.7,62.3,13.5,62.3,13.5L323.9,45.5z"/>
<path class="st0-megaphone" d="M328.9,224.2l44.9,128.4c37.7,6.7,62.3,13.5,62.3,13.5l-56.7-162L328.9,224.2z"/>
<polygon class="st3-megaphone" points="38.3,380.7 106.6,358.3 71.2,257 3.3,280.7 "/>
<polygon class="st0-megaphone" points="25.8,345.1 38.3,380.7 106.6,358.3 92.7,318.4 "/>
<rect x="408.8" y="164" transform="matrix(0.9206 -0.3905 0.3905 0.9206 -32.9981 192.3217)" class="st4-megaphone" width="95.3" height="26.6"/>
<polygon class="st5-megaphone" points="505.5,170.9 499.7,157.2 411.7,193.8 417.8,208.2 "/>
<rect x="359" y="94.7" transform="matrix(0.3996 -0.9167 0.9167 0.3996 139.6635 429.2659)" class="st4-megaphone" width="77" height="26.6"/>
<rect x="449.6" y="231.3" transform="matrix(0.2348 -0.972 0.972 0.2348 91.9643 656.4012)" class="st5-megaphone" width="26.6" height="77"/>
</svg>
