<svg id="Calque_1" data-name="Calque 1" xmlns="http://www.w3.org/2000/svg" viewBox="0 0 500 500"><g id="wingfoil"><path d="M146.79,84.77c1.46,1,23.15,16.11,29,24.82,8.18,12.26,12.07,27.1,16.09,43.66,1.73,7.13,2.17,34,2.17,34.75a47.28,47.28,0,0,0,12-7c1.31-7.47-3.14-36.79-3.6-40.16-2.19-7.31-3.88-15.11-6.89-22.06C184.15,92.59,165.93,82.35,143,68c.3-5.49,14.08-12.17,19-14,8.6-3.2,24.12-6.16,37-5s23.53,8.24,25,9.12c16.92,10.07,30.07,23.32,40.91,39.52,4.1,6.14,10.81,12.74,12.86,20.68.85,3.3-1.78,6.87-2.75,8.74-1.34,2.56-7.93,16.15-8.74,17.92-8.83,19.32-20,36.43-31.25,53.31-2.34,3.53-9.6,13.57-10.57,15.17-1.27,2.11-4.46,6.23-4.46,6.54,5.37,0,19-2,19-2s9.29-15.23,11.66-18.79c6.59-9.87,35.51-70.79,40.9-72.15,3.59-.91,22.87,6.13,26.66,7.81A239,239,0,0,1,347.17,150c26.55,16.7,47.83,49,47.83,49s9.87,16.18,13,35-.5,40.09-1.08,42c-2.9,9.38-18.23,45.5-19.76,47.8C385.28,327.36,383,331,381,335c5.36,5.13,11,7,13.05,15.42.31,0,3.37-3.64,4.6-5.52,2.73-4.18,11.12-22.3,12.41-24.81a207.65,207.65,0,0,0,12.87-31.72c1.72-5.62,5.24-15.94,6.07-26.37,1.95-24.43-2.42-45.65-5.61-53.6-15.57-38.69-44.33-65.49-80-83.64C342.33,123.69,298,108.86,295,106s-5.88-8.12-8-11.58c-3.64-5.83-8.23-11.82-12.41-17.46C264.83,63.85,245.74,46,230,39.27c-3.27-1.39-15.3-7.15-29-8.27a106.5,106.5,0,0,0-34.45,2.76c-6.45,1.76-30.06,11.57-42.28,20.68-6,4.48-11.25,6.92-11,16.54,1.66,1.76,12,5.25,16.54,6.44C133.46,78.38,145.3,83.81,146.79,84.77Zm-33.55,93.3c3.07-.14,3.69-1.12,5.51-2.3a69,69,0,0,1,6.44-16.54C129,158,135.32,157.07,140,156c13.32-3.05,26.05-6.59,39.42-9.64,1.21-5.93-1.72-8.94-4.14-12.41S163.45,122.88,153,121c-11.81-2.12-24.84,1.63-27.35,2.38-13,3.87-26.51,17.74-22.65,35.62C103.89,163.11,110.67,176,113.24,178.07ZM175,165c.68-6.88-.63-12.49-1-13-2-.25-23.53,4.78-25.37,5.39-.56,2.52-1.51,18.12-.46,19.76.09,6.31,10.75,12.61,17.92,12.41C170.76,184.72,174.13,173.82,175,165Zm-31.43,9.85c.58-.84.5-2.62.46-4.13-.14-6.65-4.34-9-11.49-8.74-1.67,1.63-3,2.8-4.59,4.6,0,5.31,8.65,9.73,13.32,10.57C142.42,176.18,143,176.52,143.57,174.85ZM122,177c-.3.4-.3,5.65,3,10,3.58,4.71,10.62,8.57,14,9.45,2.16.58,13.9.47,15.62-.91.46-.16,1.33-2.17.92-2.76-.59-1.63-6.09-6.4-13.52-9.78C133.24,179,122.37,176.51,122,177Zm93,26c9-4,17.17-6.87,20-9,1-.72,8-5,6-10a9,9,0,0,0-9-6c-5,0-31,11-31,11s-13.5,5.8-19.74,8.37L158,207l35,9S204.43,207.7,215,203ZM109.56,348.12C112.6,352.34,124,368,124,368l29-9s-8.86-14.82-11.27-18.23c-2.82-4-9.94-19.77-7.81-22.52,1.71-4.26,9.17-8.14,14.08-9.25,7-1,26.8,1.55,30.5,2.81,2.68.92,9.7,9.37,11.5,11.19,4.74,4.78,15,21,15,21l28-8s-8.82-18.49-12.68-22.35C210.17,303.49,203.76,290.39,189,285c-7.56-2.76-16.08-2.17-24-4-3.35-.77-12.24-3-12.7-3.2.39-6.43,3.68-12.18,5.7-16.8a169.42,169.42,0,0,1,9-17.67c3.73,0,18,2.67,18.39,3.22S181.71,261.6,179,270c-1.26,3.91,0,6,3,7,4.52,2.81,14.93.46,19-1,15.09-5.41,27.93-7.56,44.6-12,9.74-2.58,42.56,0,48.26,2.3C321.28,277.57,340.92,298.39,353,325c4.58,1,15.69,4,16,4-2.75-10.56-8.2-20.67-13.55-28.68C346.84,287.46,326.71,266.91,303,258c-24.47-9.19-52.47-6.51-58-5-11.27,3.08-38.46,9.64-38.92,9.64,3.06-4.45,4.65-10.95,8.92-14.64,6.37-2.53,11.92-1.78,17-3,4.29-.46,34.15-5.86,42-11,4-2.64,12-6,7.91-14.57-3-6.18-13.45-6.55-21.91-3.43-6.79,2.5-15.27,4.38-22.21,6.65-3.86,1.27-20.14,3.07-23.44,2.3-18.95-4.44-38.21-7.88-56.07-13.79-5.05-1.67-19.15-5.82-20.68-6-2.63-.8-15.51-2.78-18.85-1.84-3.77,1.06-8.48,4-10.57,6.89-3.28,4.53-4.68,10-7.35,15.17-6.93,13.41-13.27,28-17.46,44.12-2,7.77-.68,20.18.63,25.47C89.31,316.39,98.47,332.72,109.56,348.12ZM197,248c.61,0,2-.07,2.64-.07-.29.88-3.67,8.16-4.64,9.07C194.45,257.51,196.52,249.29,197,248ZM429,432.69c-2.7-6.43-7.25-12-17.46-9.2l-27.58,9.2c-4.47,1.42-8.48,1.11-13.33,2.29s-14.5,2.88-21.14,1.38a257.11,257.11,0,0,1-33.09-10.11c-2.95-1.07-12-4.72-16.09-3.67-6.37,1.63-12.84,5.37-18.84,7.81-2.52,1-18.67,4.95-34.45,4.61-17.29-.37-34.41-5.15-39.54-7.37-4.08-1.76-8.66-6.66-15.63-5.05-16.12,3.71-28.93,10.1-45.5,13.78-10.49,2.33-23-2.2-30.79-3.21-.06-3.41-.84-14,.46-16.09.16-2.2,7.41-4.12,9.19-3.68,4.25,1.06,9.73,1.11,15.62,1.38,1.08.16,12.7-3.32,16.55-4.59,7.35-2.44,14.82-5,22.52-7.82,4-1.46,10.91-5.2,17-3.67,5.47,1.37,10.11,4.86,15.16,6.89,2.67.65,18.07,6.88,32.95,6.43,16.73-.51,33.14-7.83,36.45-9.19,6-2.46,12.47-6.13,18.84-7.81,5.14-1.35,13.54,3.41,17.47,4.14s17-3.78,20.24-5.14c8.28-3.49,23.66-8.51,35-17,11.66-8.73,17.29-21.76,16.46-25.2-1.73-7.12-7.88-10.7-13.79-13.79-14.37-7.5-31.3-9.66-53.77-9.65-7.36.15-44.58,3.06-55.62,6C222.79,345.81,179.9,356,139.9,370.64c-13.55,5-27.13,8.47-40,13.79-5.89,2.43-12.36,3.29-17,6.89l-2.76,4.14c0,1.43-.07,2.9.46,3.68,1.58,4.61,14.86,8.32,19.3,11a5.3,5.3,0,0,0,.92,2.29v16.09c-4-.94-12.66-4.8-19.83-4.55-6.54.23-11.8,4.45-12.8,5.93-.86,1.26-.86,2.63-1.84,3.68-.12,11,6.71,13.76,13.79,17.46,13.42,7,29.11,9.41,46.42,13.33,4.11.93,16.05,1.49,20.68.46,8.79-2,18-2.84,25.74-6,5.46-2.22,12-7.54,21.14-5.51,13.12,2.9,23.89,6.56,36.31,10.11,3.47,1,13,3.23,17.46,2.3,4-.83,8.65-.39,12.87-1.38,8.56-2,17.29-3.51,25.28-6.44,2.61-.95,16.07-6.38,18.38-6,6.56,1.16,13.84,5.26,20.22,7.35,7.75,2.54,16,3.65,24.36,5.52,5.3,1.18,17.26,1.19,22.52,0,15.16-3.44,29.68-7.23,42.74-12.87,7.07-3.06,14.25-6.09,16.09-14.25C430.91,435.32,429.52,434,429,432.69Z"/></g></svg>